<svg width="123" height="36" viewBox="0 0 123 36" fill="none" xmlns="http://www.w3.org/2000/svg">
<path d="M1.89631 7.18182H7.58523L13.5938 21.8409H13.8494L19.858 7.18182H25.5469V29H21.0724V14.799H20.8913L15.245 28.8935H12.1982L6.55185 14.7457H6.37074V29H1.89631V7.18182ZM33.9284 29.3089C32.8844 29.3089 31.954 29.1278 31.1373 28.7656C30.3205 28.3963 29.6742 27.853 29.1983 27.1357C28.7296 26.4112 28.4952 25.5092 28.4952 24.4297C28.4952 23.5206 28.6621 22.7571 28.9959 22.1392C29.3297 21.5213 29.7843 21.0241 30.3596 20.6477C30.9348 20.2713 31.5882 19.9872 32.3198 19.7955C33.0584 19.6037 33.8326 19.4688 34.6422 19.3906C35.5939 19.2912 36.361 19.1989 36.9434 19.1136C37.5257 19.0213 37.9483 18.8864 38.2111 18.7088C38.4739 18.5312 38.6053 18.2685 38.6053 17.9205V17.8565C38.6053 17.1818 38.3922 16.6598 37.9661 16.2905C37.5471 15.9212 36.9505 15.7365 36.1763 15.7365C35.3596 15.7365 34.7097 15.9176 34.2267 16.2798C33.7438 16.6349 33.4242 17.0824 33.2679 17.6222L29.0705 17.2812C29.2836 16.2869 29.7026 15.4276 30.3276 14.7031C30.9526 13.9716 31.7587 13.4105 32.7459 13.0199C33.7402 12.6222 34.8908 12.4233 36.1976 12.4233C37.1067 12.4233 37.9767 12.5298 38.8077 12.7429C39.6458 12.956 40.388 13.2862 41.0343 13.7337C41.6877 14.1811 42.2026 14.7564 42.579 15.4595C42.9554 16.1555 43.1436 16.9901 43.1436 17.9631V29H38.8397V26.7308H38.7118C38.449 27.2422 38.0975 27.6932 37.6571 28.0838C37.2168 28.4673 36.6877 28.7692 36.0698 28.9893C35.4519 29.2024 34.7381 29.3089 33.9284 29.3089ZM35.2282 26.1768C35.8958 26.1768 36.4853 26.0455 36.9966 25.7827C37.508 25.5128 37.9093 25.1506 38.2005 24.696C38.4917 24.2415 38.6373 23.7266 38.6373 23.1513V21.4148C38.4952 21.5071 38.2999 21.5923 38.0513 21.6705C37.8098 21.7415 37.5364 21.8089 37.231 21.8729C36.9256 21.9297 36.6202 21.983 36.3148 22.0327C36.0094 22.0753 35.7324 22.1143 35.4838 22.1499C34.9512 22.228 34.486 22.3523 34.0882 22.5227C33.6905 22.6932 33.3816 22.924 33.1614 23.2152C32.9412 23.4993 32.8311 23.8544 32.8311 24.2805C32.8311 24.8984 33.0549 25.3707 33.5023 25.6974C33.9569 26.017 34.5321 26.1768 35.2282 26.1768ZM48.8805 35.1364C48.3052 35.1364 47.7654 35.0902 47.2612 34.9979C46.764 34.9126 46.3521 34.8026 46.0254 34.6676L47.0481 31.2798C47.5808 31.4432 48.0602 31.532 48.4863 31.5462C48.9196 31.5604 49.2924 31.4609 49.6049 31.2479C49.9245 31.0348 50.1838 30.6726 50.3826 30.1612L50.649 29.4688L44.7789 12.6364H49.5517L52.9395 24.6534H53.1099L56.5297 12.6364H61.3343L54.9743 30.7685C54.6689 31.6491 54.2534 32.4162 53.7278 33.0696C53.2093 33.7301 52.5524 34.2379 51.7569 34.593C50.9615 34.9553 50.0027 35.1364 48.8805 35.1364Z" fill="black"/>
<path d="M63.742 29V7.18182H72.4778C74.0829 7.18182 75.4217 7.41974 76.4941 7.8956C77.5666 8.37145 78.3727 9.03196 78.9125 9.87713C79.4522 10.7152 79.7221 11.6811 79.7221 12.7749C79.7221 13.6271 79.5517 14.3764 79.2108 15.0227C78.8699 15.6619 78.4011 16.1875 77.8045 16.5994C77.215 17.0043 76.5403 17.2919 75.7804 17.4624V17.6754C76.6113 17.7109 77.389 17.9453 78.1135 18.3786C78.845 18.8118 79.438 19.419 79.8926 20.2003C80.3471 20.9744 80.5744 21.8977 80.5744 22.9702C80.5744 24.1278 80.2868 25.1612 79.7115 26.0703C79.1433 26.9723 78.3017 27.6861 77.1866 28.2116C76.0716 28.7372 74.6973 29 73.0637 29H63.742ZM68.3549 25.2287H72.1156C73.4011 25.2287 74.3386 24.9837 74.9281 24.4936C75.5176 23.9964 75.8123 23.3359 75.8123 22.5121C75.8123 21.9084 75.6667 21.3757 75.3755 20.9141C75.0843 20.4524 74.6689 20.0902 74.1291 19.8274C73.5964 19.5646 72.9608 19.4332 72.2221 19.4332H68.3549V25.2287ZM68.3549 16.3118H71.7747C72.4068 16.3118 72.9679 16.2017 73.4579 15.9815C73.9551 15.7543 74.3457 15.4347 74.6298 15.0227C74.921 14.6108 75.0666 14.1172 75.0666 13.5419C75.0666 12.7536 74.786 12.1179 74.225 11.6349C73.671 11.152 72.8826 10.9105 71.8599 10.9105H68.3549V16.3118ZM90.9482 29.3196C89.2649 29.3196 87.8161 28.9787 86.6016 28.2969C85.3942 27.608 84.4638 26.6349 83.8104 25.3778C83.157 24.1136 82.8303 22.6186 82.8303 20.8928C82.8303 19.2095 83.157 17.7322 83.8104 16.4609C84.4638 15.1896 85.3835 14.1989 86.5696 13.4886C87.7628 12.7784 89.1619 12.4233 90.767 12.4233C91.8466 12.4233 92.8516 12.5973 93.782 12.9453C94.7195 13.2862 95.5362 13.8011 96.2322 14.4901C96.9354 15.179 97.4822 16.0455 97.8729 17.0895C98.2635 18.1264 98.4588 19.3409 98.4588 20.733V21.9794H84.6413V19.1669H94.1868C94.1868 18.5135 94.0447 17.9347 93.7607 17.4304C93.4766 16.9261 93.0824 16.532 92.5781 16.2479C92.081 15.9567 91.5021 15.8111 90.8416 15.8111C90.1527 15.8111 89.5419 15.9709 89.0092 16.2905C88.4837 16.603 88.0717 17.0256 87.7734 17.5582C87.4751 18.0838 87.3224 18.6697 87.3153 19.3161V21.9901C87.3153 22.7997 87.4645 23.4993 87.7628 24.0888C88.0682 24.6783 88.4979 25.1328 89.0518 25.4524C89.6058 25.772 90.2628 25.9318 91.0227 25.9318C91.527 25.9318 91.9886 25.8608 92.4077 25.7188C92.8267 25.5767 93.1854 25.3636 93.4837 25.0795C93.782 24.7955 94.0092 24.4474 94.1655 24.0355L98.3629 24.3125C98.1499 25.321 97.7131 26.2017 97.0526 26.9545C96.3991 27.7003 95.554 28.2827 94.517 28.7017C93.4872 29.1136 92.2976 29.3196 90.9482 29.3196ZM105.959 7.18182V29H101.42V7.18182H105.959ZM114.133 7.18182V29H109.594V7.18182H114.133Z" fill="#46208F"/>
<circle cx="119.5" cy="3.5" r="3.5" fill="#E2B53E"/>
</svg>
