<svg width="177" height="71" viewBox="0 0 177 71" fill="none" xmlns="http://www.w3.org/2000/svg">
<path d="M32.8963 24.1818H38.5852L44.5938 38.8409H44.8494L50.858 24.1818H56.5469V46H52.0724V31.799H51.8913L46.245 45.8935H43.1982L37.5518 31.7457H37.3707V46H32.8963V24.1818ZM64.9284 46.3089C63.8844 46.3089 62.954 46.1278 62.1373 45.7656C61.3205 45.3963 60.6742 44.853 60.1983 44.1357C59.7296 43.4112 59.4952 42.5092 59.4952 41.4297C59.4952 40.5206 59.6621 39.7571 59.9959 39.1392C60.3297 38.5213 60.7843 38.0241 61.3596 37.6477C61.9348 37.2713 62.5882 36.9872 63.3198 36.7955C64.0584 36.6037 64.8326 36.4688 65.6422 36.3906C66.5939 36.2912 67.361 36.1989 67.9434 36.1136C68.5257 36.0213 68.9483 35.8864 69.2111 35.7088C69.4739 35.5312 69.6053 35.2685 69.6053 34.9205V34.8565C69.6053 34.1818 69.3922 33.6598 68.9661 33.2905C68.5471 32.9212 67.9505 32.7365 67.1763 32.7365C66.3596 32.7365 65.7097 32.9176 65.2267 33.2798C64.7438 33.6349 64.4242 34.0824 64.2679 34.6222L60.0705 34.2812C60.2836 33.2869 60.7026 32.4276 61.3276 31.7031C61.9526 30.9716 62.7587 30.4105 63.7459 30.0199C64.7402 29.6222 65.8908 29.4233 67.1976 29.4233C68.1067 29.4233 68.9767 29.5298 69.8077 29.7429C70.6458 29.956 71.388 30.2862 72.0343 30.7337C72.6877 31.1811 73.2026 31.7564 73.579 32.4595C73.9554 33.1555 74.1436 33.9901 74.1436 34.9631V46H69.8397V43.7308H69.7118C69.449 44.2422 69.0975 44.6932 68.6571 45.0838C68.2168 45.4673 67.6877 45.7692 67.0698 45.9893C66.4519 46.2024 65.7381 46.3089 64.9284 46.3089ZM66.2282 43.1768C66.8958 43.1768 67.4853 43.0455 67.9966 42.7827C68.508 42.5128 68.9093 42.1506 69.2005 41.696C69.4917 41.2415 69.6373 40.7266 69.6373 40.1513V38.4148C69.4952 38.5071 69.2999 38.5923 69.0513 38.6705C68.8098 38.7415 68.5364 38.8089 68.231 38.8729C67.9256 38.9297 67.6202 38.983 67.3148 39.0327C67.0094 39.0753 66.7324 39.1143 66.4838 39.1499C65.9512 39.228 65.486 39.3523 65.0882 39.5227C64.6905 39.6932 64.3816 39.924 64.1614 40.2152C63.9412 40.4993 63.8311 40.8544 63.8311 41.2805C63.8311 41.8984 64.0549 42.3707 64.5023 42.6974C64.9569 43.017 65.5321 43.1768 66.2282 43.1768ZM79.8805 52.1364C79.3052 52.1364 78.7654 52.0902 78.2612 51.9979C77.764 51.9126 77.3521 51.8026 77.0254 51.6676L78.0481 48.2798C78.5808 48.4432 79.0602 48.532 79.4863 48.5462C79.9196 48.5604 80.2924 48.4609 80.6049 48.2479C80.9245 48.0348 81.1838 47.6726 81.3826 47.1612L81.649 46.4688L75.7789 29.6364H80.5517L83.9395 41.6534H84.1099L87.5297 29.6364H92.3343L85.9743 47.7685C85.6689 48.6491 85.2534 49.4162 84.7278 50.0696C84.2093 50.7301 83.5524 51.2379 82.7569 51.593C81.9615 51.9553 81.0027 52.1364 79.8805 52.1364ZM94.742 46V24.1818H103.478C105.083 24.1818 106.422 24.4197 107.494 24.8956C108.567 25.3714 109.373 26.032 109.912 26.8771C110.452 27.7152 110.722 28.6811 110.722 29.7749C110.722 30.6271 110.552 31.3764 110.211 32.0227C109.87 32.6619 109.401 33.1875 108.805 33.5994C108.215 34.0043 107.54 34.2919 106.78 34.4624V34.6754C107.611 34.7109 108.389 34.9453 109.113 35.3786C109.845 35.8118 110.438 36.419 110.893 37.2003C111.347 37.9744 111.574 38.8977 111.574 39.9702C111.574 41.1278 111.287 42.1612 110.711 43.0703C110.143 43.9723 109.302 44.6861 108.187 45.2116C107.072 45.7372 105.697 46 104.064 46H94.742ZM99.3549 42.2287H103.116C104.401 42.2287 105.339 41.9837 105.928 41.4936C106.518 40.9964 106.812 40.3359 106.812 39.5121C106.812 38.9084 106.667 38.3757 106.376 37.9141C106.084 37.4524 105.669 37.0902 105.129 36.8274C104.596 36.5646 103.961 36.4332 103.222 36.4332H99.3549V42.2287ZM99.3549 33.3118H102.775C103.407 33.3118 103.968 33.2017 104.458 32.9815C104.955 32.7543 105.346 32.4347 105.63 32.0227C105.921 31.6108 106.067 31.1172 106.067 30.5419C106.067 29.7536 105.786 29.1179 105.225 28.6349C104.671 28.152 103.883 27.9105 102.86 27.9105H99.3549V33.3118ZM121.948 46.3196C120.265 46.3196 118.816 45.9787 117.602 45.2969C116.394 44.608 115.464 43.6349 114.81 42.3778C114.157 41.1136 113.83 39.6186 113.83 37.8928C113.83 36.2095 114.157 34.7322 114.81 33.4609C115.464 32.1896 116.384 31.1989 117.57 30.4886C118.763 29.7784 120.162 29.4233 121.767 29.4233C122.847 29.4233 123.852 29.5973 124.782 29.9453C125.719 30.2862 126.536 30.8011 127.232 31.4901C127.935 32.179 128.482 33.0455 128.873 34.0895C129.263 35.1264 129.459 36.3409 129.459 37.733V38.9794H115.641V36.1669H125.187C125.187 35.5135 125.045 34.9347 124.761 34.4304C124.477 33.9261 124.082 33.532 123.578 33.2479C123.081 32.9567 122.502 32.8111 121.842 32.8111C121.153 32.8111 120.542 32.9709 120.009 33.2905C119.484 33.603 119.072 34.0256 118.773 34.5582C118.475 35.0838 118.322 35.6697 118.315 36.3161V38.9901C118.315 39.7997 118.464 40.4993 118.763 41.0888C119.068 41.6783 119.498 42.1328 120.052 42.4524C120.606 42.772 121.263 42.9318 122.023 42.9318C122.527 42.9318 122.989 42.8608 123.408 42.7188C123.827 42.5767 124.185 42.3636 124.484 42.0795C124.782 41.7955 125.009 41.4474 125.165 41.0355L129.363 41.3125C129.15 42.321 128.713 43.2017 128.053 43.9545C127.399 44.7003 126.554 45.2827 125.517 45.7017C124.487 46.1136 123.298 46.3196 121.948 46.3196ZM136.959 24.1818V46H132.42V24.1818H136.959ZM145.133 24.1818V46H140.594V24.1818H145.133Z" fill="white"/>
<circle cx="150.5" cy="20.5" r="3.5" fill="white"/>
</svg>
