<svg width="46" height="32" viewBox="0 0 46 32" fill="none" xmlns="http://www.w3.org/2000/svg">
<rect x="0.5" y="0.5" width="45" height="31" rx="5.5" fill="white"/>
<path fill-rule="evenodd" clip-rule="evenodd" d="M14.3337 21.1443H11.5874L9.52795 13.0565C9.4302 12.6844 9.22265 12.3555 8.91736 12.2005C8.15546 11.811 7.3159 11.5009 6.40001 11.3446V11.0332H10.8241C11.4347 11.0332 11.8927 11.5009 11.969 12.0442L13.0375 17.8782L15.7825 11.0332H18.4525L14.3337 21.1443ZM19.979 21.1443H17.3853L19.521 11.0332H22.1147L19.979 21.1443ZM25.4703 13.8343C25.5466 13.2897 26.0045 12.9783 26.5388 12.9783C27.3784 12.9001 28.2929 13.0565 29.0562 13.4447L29.5141 11.2677C28.7509 10.9564 27.9113 10.8 27.1494 10.8C24.6321 10.8 22.8003 12.2005 22.8003 14.1443C22.8003 15.623 24.0978 16.3995 25.0137 16.8672C26.0045 17.3336 26.3862 17.645 26.3098 18.1114C26.3098 18.811 25.5466 19.1224 24.7847 19.1224C23.8688 19.1224 22.9529 18.8892 22.1147 18.4996L21.6568 20.6779C22.5726 21.0661 23.5635 21.2225 24.4794 21.2225C27.302 21.2993 29.0562 19.9001 29.0562 17.8C29.0562 15.1553 25.4703 15.0003 25.4703 13.8343ZM38.1333 21.1443L36.0739 11.0332H33.8619C33.4039 11.0332 32.946 11.3446 32.7933 11.811L28.9798 21.1443H31.6498L32.1828 19.6669H35.4633L35.7686 21.1443H38.1333ZM34.2435 13.7561L35.0054 17.5668H32.8697L34.2435 13.7561Z" fill="#172B85"/>
<rect x="0.5" y="0.5" width="45" height="31" rx="5.5" stroke="#F9F7F6"/>
</svg>
