<svg width="46" height="32" viewBox="0 0 46 32" fill="none" xmlns="http://www.w3.org/2000/svg">
<rect x="0.5" y="0.5" width="45" height="31" rx="3.5" fill="white"/>
<path fill-rule="evenodd" clip-rule="evenodd" d="M19.4856 24.5977L19.7799 22.6655L19.1243 22.6497H15.9937L18.1694 8.39158C18.1761 8.3484 18.198 8.30832 18.23 8.27981C18.2622 8.2513 18.3032 8.23566 18.3461 8.23566H23.6247C25.3773 8.23566 26.5866 8.61251 27.2179 9.35643C27.514 9.70541 27.7025 10.0702 27.7938 10.4715C27.8894 10.8927 27.891 11.3958 27.7977 12.0095L27.7909 12.0542V12.4475L28.087 12.6208C28.3362 12.7575 28.5343 12.9139 28.6863 13.093C28.9394 13.3915 29.1032 13.7708 29.1724 14.2203C29.244 14.6826 29.2203 15.233 29.1032 15.856C28.9681 16.5726 28.7498 17.1968 28.4549 17.7074C28.1837 18.1779 27.8382 18.5683 27.4279 18.8707C27.0362 19.1581 26.5709 19.3762 26.0447 19.5159C25.5347 19.653 24.9534 19.7223 24.3158 19.7223H23.905C23.6113 19.7223 23.326 19.8316 23.102 20.0276C22.8774 20.2277 22.7289 20.5011 22.6833 20.8L22.6523 20.974L22.1322 24.3797L22.1087 24.5047C22.1024 24.5443 22.0917 24.564 22.076 24.5773C22.0619 24.5895 22.0418 24.5977 22.0221 24.5977H19.4856Z" fill="#28356A"/>
<path fill-rule="evenodd" clip-rule="evenodd" d="M28.3675 12.0996C28.3519 12.2037 28.3338 12.3101 28.3136 12.4194C27.6175 16.1136 25.2359 17.3898 22.1942 17.3898H20.6454C20.2734 17.3898 19.9599 17.6689 19.902 18.0482L18.8845 24.7192C18.8469 24.9683 19.0325 25.1927 19.2756 25.1927H22.0225C22.3477 25.1927 22.624 24.9484 22.6753 24.6169L22.7022 24.4727L23.2194 21.0804L23.2527 20.8943C23.3033 20.5616 23.5802 20.3173 23.9054 20.3173H24.3162C26.9775 20.3173 29.061 19.2006 29.6699 15.9688C29.9242 14.6187 29.7925 13.4915 29.1194 12.6987C28.9158 12.4596 28.6631 12.2612 28.3675 12.0996Z" fill="#298FC2"/>
<path fill-rule="evenodd" clip-rule="evenodd" d="M27.639 11.7995C27.5326 11.7674 27.4229 11.7384 27.3103 11.7122C27.1972 11.6866 27.0813 11.6639 26.962 11.6441C26.5444 11.5743 26.0868 11.5413 25.5967 11.5413H21.4593C21.3573 11.5413 21.2606 11.565 21.174 11.6081C20.9831 11.7029 20.8414 11.8896 20.8071 12.1182L19.9268 17.8802L19.9016 18.0482C19.9595 17.6689 20.273 17.3898 20.645 17.3898H22.1937C25.2354 17.3898 27.6171 16.113 28.3132 12.4194C28.334 12.3101 28.3515 12.2037 28.3671 12.0996C28.191 12.003 28.0003 11.9204 27.7949 11.85C27.7441 11.8326 27.6918 11.8158 27.639 11.7995Z" fill="#22284F"/>
<path fill-rule="evenodd" clip-rule="evenodd" d="M20.8073 12.1182C20.8416 11.8896 20.9834 11.7029 21.1743 11.6087C21.2614 11.5656 21.3576 11.5418 21.4596 11.5418H25.5969C26.087 11.5418 26.5446 11.575 26.9622 11.6447C27.0815 11.6645 27.1974 11.6873 27.3106 11.7128C27.4231 11.7389 27.5328 11.7681 27.6392 11.8C27.692 11.8163 27.7444 11.8332 27.7956 11.85C28.001 11.9204 28.1919 12.0037 28.368 12.0996C28.5751 10.7345 28.3662 9.80498 27.6522 8.9633C26.8648 8.03658 25.4439 7.64001 23.6256 7.64001H18.3468C17.9754 7.64001 17.6586 7.91911 17.6012 8.29905L15.4025 22.7038C15.3592 22.9888 15.5718 23.2459 15.8499 23.2459H19.1088L20.8073 12.1182Z" fill="#28356A"/>
<rect x="0.5" y="0.5" width="45" height="31" rx="3.5" stroke="#F9F7F6"/>
</svg>
