<svg width="46" height="32" viewBox="0 0 46 32" fill="none" xmlns="http://www.w3.org/2000/svg">
<rect x="0.5" y="0.5" width="45" height="31" rx="3.5" fill="white"/>
<path fill-rule="evenodd" clip-rule="evenodd" d="M24.3575 10.8559L22.0547 11.3647V9.44269L24.3575 8.94336V10.8559ZM29.1465 11.9205C28.2474 11.9205 27.6694 12.3539 27.3483 12.6554L27.229 12.0713H25.2106V23.0566L27.5043 22.5573L27.5134 19.891C27.8437 20.136 28.33 20.4846 29.1374 20.4846C30.7796 20.4846 32.2751 19.1279 32.2751 16.1413C32.2659 13.4091 30.7521 11.9205 29.1465 11.9205ZM28.596 18.4118C28.0547 18.4118 27.7336 18.214 27.5134 17.969L27.5043 14.4737C27.7428 14.2005 28.0731 14.0121 28.596 14.0121C29.4309 14.0121 30.0089 14.973 30.0089 16.2072C30.0089 17.4697 29.4401 18.4118 28.596 18.4118ZM39.5048 16.2355C39.5048 13.8236 38.3671 11.9205 36.1927 11.9205C34.0092 11.9205 32.688 13.8236 32.688 16.2167C32.688 19.0525 34.2477 20.4845 36.4863 20.4845C37.5781 20.4845 38.4038 20.2302 39.0277 19.8722V17.9879C38.4038 18.3082 37.6882 18.5061 36.7799 18.5061C35.89 18.5061 35.101 18.1857 35 17.074H39.4864C39.4864 17.0221 39.4897 16.9041 39.4935 16.7682C39.4987 16.5835 39.5048 16.3658 39.5048 16.2355ZM34.9725 15.3405C34.9725 14.2759 35.6055 13.8331 36.1835 13.8331C36.7432 13.8331 37.3395 14.2759 37.3395 15.3405H34.9725ZM22.0545 12.0807H24.3574V20.3244H22.0545V12.0807ZM19.44 12.0807L19.5868 12.7779C20.1281 11.7604 21.2015 11.9676 21.4951 12.0807V14.2476C21.2107 14.144 20.2932 14.0121 19.7519 14.7375V20.3244H17.4583V12.0807H19.44ZM14.9993 10.0362L12.7607 10.5261L12.7515 18.0727C12.7515 19.467 13.7699 20.494 15.1278 20.494C15.8801 20.494 16.4306 20.3526 16.7333 20.1831V18.2705C16.4397 18.393 14.9902 18.8264 14.9902 17.432V14.0874H16.7333V12.0807H14.9902L14.9993 10.0362ZM9.57723 13.965C9.09097 13.965 8.79738 14.1063 8.79738 14.4737C8.79738 14.8749 9.30265 15.0514 9.9295 15.2703C10.9514 15.6272 12.2964 16.097 12.3021 17.8372C12.3021 19.5236 10.9901 20.494 9.0818 20.494C8.29278 20.494 7.43036 20.3338 6.57712 19.957V17.7147C7.34779 18.1481 8.3203 18.4684 9.0818 18.4684C9.59558 18.4684 9.96256 18.3271 9.96256 17.8937C9.96256 17.4493 9.41484 17.2462 8.75359 17.001C7.74655 16.6275 6.4762 16.1564 6.4762 14.5868C6.4762 12.9192 7.71477 11.9205 9.57723 11.9205C10.3387 11.9205 11.091 12.043 11.8525 12.3539V14.5679C11.1553 14.1817 10.2745 13.965 9.57723 13.965Z" fill="#6461FC"/>
<rect x="0.5" y="0.5" width="45" height="31" rx="3.5" stroke="#F9F7F6"/>
</svg>
