<svg width="46" height="32" viewBox="0 0 46 32" fill="none" xmlns="http://www.w3.org/2000/svg">
<rect x="0.5" y="0.5" width="45" height="31" rx="5.5" fill="white"/>
<path fill-rule="evenodd" clip-rule="evenodd" d="M22.9053 22.4392C21.3266 23.77 19.2787 24.5733 17.0409 24.5733C12.0478 24.5733 8 20.5737 8 15.64C8 10.7062 12.0478 6.70663 17.0409 6.70663C19.2787 6.70663 21.3266 7.50997 22.9053 8.84069C24.484 7.50997 26.5319 6.70663 28.7697 6.70663C33.7628 6.70663 37.8106 10.7062 37.8106 15.64C37.8106 20.5737 33.7628 24.5733 28.7697 24.5733C26.5319 24.5733 24.484 23.77 22.9053 22.4392Z" fill="#ED0006"/>
<path fill-rule="evenodd" clip-rule="evenodd" d="M22.9053 22.4392C24.8492 20.8007 26.0818 18.3626 26.0818 15.64C26.0818 12.9174 24.8492 10.4792 22.9053 8.84069C24.484 7.50996 26.5319 6.70663 28.7697 6.70663C33.7628 6.70663 37.8106 10.7062 37.8106 15.64C37.8106 20.5737 33.7628 24.5733 28.7697 24.5733C26.5319 24.5733 24.484 23.77 22.9053 22.4392Z" fill="#F9A000"/>
<path fill-rule="evenodd" clip-rule="evenodd" d="M22.9053 22.4392C24.8492 20.8007 26.0818 18.3626 26.0818 15.64C26.0818 12.9174 24.8492 10.4793 22.9053 8.84073C20.9614 10.4793 19.7288 12.9174 19.7288 15.64C19.7288 18.3626 20.9614 20.8007 22.9053 22.4392Z" fill="#FF5E00"/>
<rect x="0.5" y="0.5" width="45" height="31" rx="5.5" stroke="#F9F7F6"/>
</svg>
