<?xml version="1.0" encoding="utf-8"?><!-- Uploaded to: SVG Repo, www.svgrepo.com, Generator: SVG Repo Mixer Tools -->
<svg fill="#000000" width="800px" height="800px" viewBox="0 0 50 50" xmlns="http://www.w3.org/2000/svg" xmlns:xlink="http://www.w3.org/1999/xlink"><path d="M13.9375 12C8.488281 12 4.03125 16.425781 4.03125 21.875L4.03125 24.15625C1.742188 24.734375 0.03125 26.824219 0.03125 29.28125C0.03125 31.496094 1.460938 33.320313 3.40625 34.09375L5.84375 40.4375L5.875 40.53125L5.90625 40.53125C6.148438 41.28125 6.566406 41.875 7.0625 42.34375L5.3125 45.875C4.613281 47.269531 5.167969 48.988281 6.5625 49.6875C6.964844 49.890625 7.414063 50 7.84375 50C8.886719 50 9.910156 49.425781 10.40625 48.4375L12.59375 44L37.40625 44L39.59375 48.4375C40.089844 49.425781 41.113281 50 42.15625 50C42.585938 50 43.035156 49.890625 43.4375 49.6875C44.832031 48.988281 45.386719 47.269531 44.6875 45.875L42.9375 42.34375C43.433594 41.875 43.851563 41.28125 44.09375 40.53125L44.125 40.53125L44.15625 40.4375L46.59375 34.09375C48.539063 33.320313 49.96875 31.496094 49.96875 29.28125C49.96875 26.824219 48.257813 24.734375 45.96875 24.15625L45.96875 21.875C45.96875 16.425781 41.511719 12 36.0625 12 Z M 13.9375 14L36.0625 14C40.429688 14 43.96875 17.507813 43.96875 21.875L43.96875 24.0625C42.0625 24.332031 40.492188 25.628906 39.8125 27.375L39.78125 27.375L38.15625 31.09375C38.023438 31.050781 37.945313 31.019531 37.78125 30.96875C37.027344 30.742188 35.960938 30.445313 34.6875 30.15625C32.136719 29.578125 28.722656 29 25.125 29C21.527344 29 18.046875 29.574219 15.4375 30.15625C14.132813 30.445313 13.027344 30.738281 12.25 30.96875C12.074219 31.019531 11.984375 31.050781 11.84375 31.09375L10.3125 27.65625L10.28125 27.65625C9.671875 25.769531 8.035156 24.347656 6.03125 24.0625L6.03125 21.875C6.03125 17.507813 9.570313 14 13.9375 14 Z M 5.3125 26C6.800781 26 8.039063 26.984375 8.4375 28.34375L8.4375 28.40625L8.46875 28.46875L10.40625 32.75L10.875 33.78125L11.71875 33.25L11.8125 33.1875C11.828125 33.175781 11.8125 33.207031 11.84375 33.1875C11.882813 33.171875 11.914063 33.175781 11.96875 33.15625C12.167969 33.089844 12.445313 32.984375 12.8125 32.875C13.550781 32.660156 14.617188 32.375 15.875 32.09375C18.386719 31.535156 21.742188 31 25.125 31C28.507813 31 31.800781 31.539063 34.25 32.09375C35.472656 32.371094 36.476563 32.660156 37.1875 32.875C37.542969 32.984375 37.839844 33.058594 38.03125 33.125C38.125 33.15625 38.175781 33.203125 38.21875 33.21875L38.25 33.21875L39.125 33.75L39.59375 32.71875L41.625 28.1875L41.625 28.15625L41.65625 28.125C42.121094 26.882813 43.277344 26 44.6875 26C46.503906 26 47.96875 27.464844 47.96875 29.28125C47.96875 30.789063 46.945313 32.023438 45.5625 32.40625L45.0625 32.53125L44.90625 33L42.25 39.8125L42.25 39.84375L42.21875 39.875C41.925781 40.894531 41.0625 41.421875 40.09375 41.71875C39.261719 41.976563 38.601563 42 38.40625 42C38.148438 41.886719 37.851563 41.886719 37.59375 42L12.375 42C12.132813 41.902344 11.867188 41.902344 11.625 42C11.460938 42 10.765625 41.984375 9.90625 41.71875C8.9375 41.421875 8.074219 40.894531 7.78125 39.875L7.75 39.84375L7.75 39.78125L5.09375 33L4.9375 32.53125L4.4375 32.40625C3.050781 32.023438 2.03125 30.789063 2.03125 29.28125C2.03125 27.464844 3.496094 26 5.3125 26 Z M 8.78125 43.40625C8.957031 43.476563 9.144531 43.574219 9.3125 43.625C9.714844 43.75 10.089844 43.820313 10.4375 43.875L8.59375 47.53125C8.441406 47.835938 8.15625 48 7.84375 48C7.71875 48 7.59375 47.96875 7.46875 47.90625C7.039063 47.691406 6.878906 47.210938 7.09375 46.78125 Z M 41.21875 43.40625L42.90625 46.78125C43.121094 47.210938 42.960938 47.691406 42.53125 47.90625C42.40625 47.96875 42.28125 48 42.15625 48C41.84375 48 41.558594 47.839844 41.40625 47.53125L39.5625 43.875C39.910156 43.820313 40.285156 43.75 40.6875 43.625C40.855469 43.574219 41.042969 43.476563 41.21875 43.40625Z"/></svg>