<?xml version="1.0" encoding="utf-8"?><!-- Uploaded to: SVG Repo, www.svgrepo.com, Generator: SVG Repo Mixer Tools -->
<svg fill="#000000" width="800px" height="800px" viewBox="0 0 50 50" xmlns="http://www.w3.org/2000/svg" xmlns:xlink="http://www.w3.org/1999/xlink"><path d="M10.585938 11L0.38085938 21.205078 A 1.0001 1.0001 0 0 0 0.18945312 21.396484L0 21.585938L0 21.832031 A 1.0001 1.0001 0 0 0 0 22.158203L0 28L3 28L3 50L9 50L9 28L11 28L11 43L17 43L17 28L33 28L33 43L39 43L39 28L41 28L41 50L47 50L47 28L50 28L50 22.167969 A 1.0001 1.0001 0 0 0 50 21.841797L50 21.585938L49.806641 21.392578 A 1.0001 1.0001 0 0 0 49.623047 21.207031 A 1.0001 1.0001 0 0 0 49.617188 21.203125L39.414062 11L39 11L10.585938 11 z M 11.414062 13L38.585938 13L46.585938 21L3.4140625 21L11.414062 13 z M 2 23L48 23L48 26L46.167969 26 A 1.0001 1.0001 0 0 0 45.841797 26L42.154297 26 A 1.0001 1.0001 0 0 0 41.984375 25.986328 A 1.0001 1.0001 0 0 0 41.839844 26L38.167969 26 A 1.0001 1.0001 0 0 0 37.841797 26L34.154297 26 A 1.0001 1.0001 0 0 0 33.984375 25.986328 A 1.0001 1.0001 0 0 0 33.839844 26L16.167969 26 A 1.0001 1.0001 0 0 0 15.841797 26L12.154297 26 A 1.0001 1.0001 0 0 0 11.984375 25.986328 A 1.0001 1.0001 0 0 0 11.839844 26L8.1679688 26 A 1.0001 1.0001 0 0 0 7.8417969 26L4.1542969 26 A 1.0001 1.0001 0 0 0 3.984375 25.986328 A 1.0001 1.0001 0 0 0 3.8398438 26L2 26L2 23 z M 5 28L7 28L7 48L5 48L5 28 z M 13 28L15 28L15 41L13 41L13 28 z M 35 28L37 28L37 41L35 41L35 28 z M 43 28L45 28L45 48L43 48L43 28 z"/></svg>