<?xml version="1.0" standalone="no"?>
<!DOCTYPE svg PUBLIC "-//W3C//DTD SVG 20010904//EN"
 "http://www.w3.org/TR/2001/REC-SVG-20010904/DTD/svg10.dtd">
<svg version="1.0" xmlns="http://www.w3.org/2000/svg"
 width="108.000000pt" height="108.000000pt" viewBox="0 0 108.000000 108.000000"
 preserveAspectRatio="xMidYMid meet">
<metadata>
Created by potrace 1.14, written by Peter Selinger 2001-2017
</metadata>
<g transform="translate(0.000000,108.000000) scale(0.100000,-0.100000)"
fill="#000000" stroke="none">
<path d="M390 536 l0 -146 25 0 c25 0 25 1 25 91 0 49 4 88 8 85 5 -3 24 -44
42 -91 28 -73 36 -86 54 -83 15 2 29 24 56 93 l35 89 3 -92 3 -92 29 0 30 0 0
145 0 145 -38 0 -39 0 -38 -96 c-20 -52 -41 -92 -45 -87 -5 4 -24 46 -42 93
-34 84 -35 85 -71 88 l-37 3 0 -145z"/>
</g>
</svg>
